<svg width="16" height="16" viewBox="0 0 16 16" fill="none" xmlns="http://www.w3.org/2000/svg">
<path fill-rule="evenodd" clip-rule="evenodd" d="M7.99926 0.222168C3.58218 0.222168 0 3.8027 0 8.21981C0 11.7532 2.29203 14.7505 5.47101 15.808C5.87127 15.8816 6.01713 15.6347 6.01713 15.4226C6.01713 15.2331 6.01025 14.7299 6.00632 14.0627C3.78109 14.5458 3.31158 12.9904 3.31158 12.9904C2.94767 12.0664 2.42316 11.8205 2.42316 11.8205C1.6968 11.3246 2.47816 11.3344 2.47816 11.3344C3.28113 11.3909 3.70349 12.1587 3.70349 12.1587C4.41708 13.3807 5.57611 13.0277 6.03186 12.823C6.10455 12.3065 6.31131 11.954 6.53967 11.7542C4.76331 11.5524 2.89561 10.8661 2.89561 7.80152C2.89561 6.9286 3.20747 6.21426 3.71921 5.65556C3.6367 5.45328 3.36217 4.63977 3.79778 3.53905C3.79778 3.53905 4.46914 3.32402 5.99748 4.35895C6.63544 4.18122 7.32005 4.09285 8.00025 4.08941C8.67995 4.09285 9.36407 4.18122 10.003 4.35895C11.5304 3.32402 12.2007 3.53905 12.2007 3.53905C12.6373 4.63977 12.3628 5.45328 12.2808 5.65556C12.7935 6.21426 13.1029 6.9286 13.1029 7.80152C13.1029 10.8739 11.2323 11.55 9.45051 11.7478C9.73732 11.9948 9.99319 12.4828 9.99319 13.229C9.99319 14.2978 9.98336 15.1604 9.98336 15.4226C9.98336 15.6367 10.1278 15.8856 10.5334 15.8075C13.7099 14.7475 16 11.7522 16 8.21981C16 3.8027 12.4178 0.222168 7.99926 0.222168" fill="#161514"/>
</svg>
