<svg width="140" height="120" viewBox="0 0 140 120" fill="none" xmlns="http://www.w3.org/2000/svg">
<path d="M94.77 37.3601C95.6 38.9301 96.35 40.3701 96.85 42.1601C99.7 52.4201 93.7 63.0501 83.44 65.9001C73.18 68.7501 62.55 62.7501 59.7 52.4801C56.85 42.2201 62.85 31.5901 73.12 28.7401C78.07 27.3601 83.1 28.0501 87.31 30.2801C87.3 30.2801 92.52 33.0801 94.77 37.3601Z" stroke="#8B8B8B" stroke-miterlimit="10" stroke-linecap="round" stroke-linejoin="round"/>
<path d="M72.63 94.6301C73.66 96.9101 75.46 98.6101 77.61 99.5801C80.48 100.87 83.82 100.57 86.58 99.0501L92.32 96.4901L99.2 110.36C101.02 113.31 104.66 114.57 107.92 113.38C111.98 111.89 113.87 107.22 111.98 103.33L104.56 88.8101C102.8 85.5301 99.22 83.6501 95.52 84.0401L91.57 85.1201" stroke="#8B8B8B" stroke-miterlimit="10" stroke-linecap="round" stroke-linejoin="round"/>
<path d="M67.18 78.1701C66.19 71.9401 65.67 70.4901 62.27 66.3101" stroke="#8B8B8B" stroke-miterlimit="10" stroke-linecap="round" stroke-linejoin="round"/>
<path d="M71.34 78.6001C71.34 78.6001 72.48 71.5701 66.26 62.8101" stroke="#8B8B8B" stroke-miterlimit="10" stroke-linecap="round" stroke-linejoin="round"/>
<path d="M59.91 70.6501L58.33 66.3501C57.98 65.1101 58.71 63.8201 59.95 63.4801L65.58 61.8401" stroke="#8B8B8B" stroke-miterlimit="10" stroke-linecap="round" stroke-linejoin="round"/>
<path d="M93.26 35.3201C90.91 36.0701 89.09 36.1201 84.97 37.6001C77.74 40.1801 75.5 43.9401 74.82 46.2001C74.49 47.2901 74.94 49.1601 75.39 50.2101C76.93 53.7901 81.86 61.8401 95.41 56.0701" stroke="#8B8B8B" stroke-miterlimit="10" stroke-linecap="round" stroke-linejoin="round"/>
<path d="M101.49 62.1C99.76 57.29 95.58 55.71 95.58 55.71" stroke="#8B8B8B" stroke-miterlimit="10" stroke-linecap="round" stroke-linejoin="round"/>
<path d="M93.96 58.8C96.77 59.51 98.55 65.44 98.55 65.44" stroke="#8B8B8B" stroke-miterlimit="10" stroke-linecap="round" stroke-linejoin="round"/>
<path d="M67.72 28.6299L68.92 30.3899" stroke="#8B8B8B" stroke-miterlimit="10" stroke-linecap="round" stroke-linejoin="round"/>
<path d="M66.26 28.7801C67.7678 28.7801 68.99 27.5578 68.99 26.0501C68.99 24.5423 67.7678 23.3201 66.26 23.3201C64.7523 23.3201 63.53 24.5423 63.53 26.0501C63.53 27.5578 64.7523 28.7801 66.26 28.7801Z" fill="#FF8853"/>
<path d="M66.26 28.7801C67.7678 28.7801 68.99 27.5578 68.99 26.0501C68.99 24.5423 67.7678 23.3201 66.26 23.3201C64.7523 23.3201 63.53 24.5423 63.53 26.0501C63.53 27.5578 64.7523 28.7801 66.26 28.7801Z" stroke="#8B8B8B" stroke-miterlimit="10" stroke-linecap="round" stroke-linejoin="round"/>
<path d="M66.7 62.9099C66.7 62.9099 55.67 65.3499 60.31 87.8699C60.65 89.5299 61.17 91.1499 61.81 92.7099C62.34 94.0099 63.19 95.1799 64.35 95.9699C65.17 96.5299 66.1 96.8799 67.05 96.8699C69.84 96.8299 72.05 95.4899 72.78 92.4999L74.47 85.4799C74.96 83.4499 74.31 81.3099 72.78 79.8899C69.5 76.8599 64.15 78.5399 63.21 82.8999" stroke="#8B8B8B" stroke-miterlimit="10" stroke-linecap="round" stroke-linejoin="round"/>
<path d="M111.72 102.9C113.2 105.88 115.98 107.85 119.11 106.72C122.65 105.44 124.38 101.46 122.91 97.9999L117.46 85.4499C115.8 81.6799 110.98 75.8999 104.66 76.0799H103.72L100.48 75.2799L98.56 68.1899" stroke="#8B8B8B" stroke-miterlimit="10" stroke-linecap="round" stroke-linejoin="round"/>
<path d="M103.6 72.18C106.466 72.18 108.79 69.8564 108.79 66.9901C108.79 64.1237 106.466 61.8 103.6 61.8C100.734 61.8 98.41 64.1237 98.41 66.9901C98.41 69.8564 100.734 72.18 103.6 72.18Z" stroke="#8B8B8B" stroke-miterlimit="10" stroke-linecap="round" stroke-linejoin="round"/>
<path d="M104.73 76.0701C104.73 76.0701 105.35 75.3101 105.94 74.8301" stroke="#8B8B8B" stroke-miterlimit="10" stroke-linecap="round" stroke-linejoin="round"/>
<path d="M73.07 91.17L74.55 94.71L77.72 92.34L74.02 87.05" stroke="#8B8B8B" stroke-miterlimit="10" stroke-linecap="round" stroke-linejoin="round"/>
<path d="M107.89 70.1599L110.95 73.1099L107.42 75.5699L104.06 72.1599" stroke="#8B8B8B" stroke-miterlimit="10" stroke-linecap="round" stroke-linejoin="round"/>
<path d="M69.52 16.17C66.41 16.97 62.4 18.86 59.18 20.53C55.52 22.43 52.06 24.71 48.87 27.33C27.3 44.99 22.1 61.25 22.1 61.25C21.11 61.86 9.49 39.82 29.9 21.75C47.65 6.03002 69.52 16.17 69.52 16.17Z" stroke="#8B8B8B" stroke-miterlimit="10" stroke-linecap="round" stroke-linejoin="round"/>
<path d="M69.52 16.17C66.41 16.97 62.4 18.86 59.18 20.53C55.52 22.43 52.06 24.71 48.87 27.33C27.3 44.99 22.1 61.25 22.1 61.25C21.11 61.86 9.49 39.82 29.9 21.75C47.65 6.03002 69.52 16.17 69.52 16.17Z" stroke="#8B8B8B" stroke-miterlimit="10" stroke-linecap="round" stroke-linejoin="round"/>
<path d="M23.51 59.6599L26.45 61.6099C28.92 63.2499 31.95 63.8099 34.84 63.1699L37.88 62.4899C40.51 61.9099 43.26 62.3099 45.6 63.6399C47.87 64.9299 50.53 65.3499 53.1 64.8399L59.96 63.4699" stroke="#8B8B8B" stroke-miterlimit="10" stroke-linecap="round" stroke-linejoin="round"/>
<path d="M66.89 17.3201L67.02 23.1101" stroke="#8B8B8B" stroke-miterlimit="10" stroke-linecap="round" stroke-linejoin="round"/>
<path d="M28.89 48.5901C29.84 49.2601 30.97 49.5901 32.13 49.5601C36.59 49.4601 40.96 50.9301 44.47 53.7401C47.61 56.2601 51.47 57.7101 55.49 57.9101L62.11 58.2201" stroke="#8B8B8B" stroke-miterlimit="10" stroke-linecap="round" stroke-linejoin="round"/>
<path d="M91.2 71.9399L94.92 70.2899C95.14 70.1899 95.24 69.9399 95.14 69.7199L93.43 65.8799C93.33 65.6599 93.08 65.5599 92.86 65.6599L89.14 67.3099C88.92 67.4099 88.82 67.6599 88.92 67.8799L90.63 71.7199C90.72 71.9399 90.98 72.0399 91.2 71.9399Z" stroke="#8B8B8B" stroke-miterlimit="10" stroke-linecap="round" stroke-linejoin="round"/>
<g opacity="0.7">
<path opacity="0.9" d="M106.75 48.2301H124.97C124.97 48.2301 125.74 41.5601 120.22 42.7001C120.22 42.7001 121.17 38.1001 115.26 38.6201C114.74 38.6701 114.23 38.8801 113.86 39.2501C113.47 39.6401 112.94 39.9701 112.79 41.2201C112.79 41.2201 109.06 40.5701 109.35 44.2201C109.35 44.2301 105.48 44.2601 106.75 48.2301Z" fill="url(#paint0_linear_996_207)"/>
</g>
<path d="M106.45 48.2301H124.67C124.67 48.2301 125.44 41.5601 119.92 42.7001C119.92 42.7001 120.87 38.1001 114.96 38.6201C114.44 38.6701 113.93 38.8801 113.56 39.2501C113.17 39.6401 112.64 39.9701 112.49 41.2201C112.49 41.2201 108.76 40.5701 109.05 44.2201C109.05 44.2301 105.18 44.2601 106.45 48.2301Z" stroke="#8B8B8B" stroke-miterlimit="10" stroke-linecap="round" stroke-linejoin="round"/>
<g opacity="0.7">
<path opacity="0.9" d="M31.47 83.7101H42.19C42.19 83.7101 42.64 79.7801 39.4 80.4501C39.4 80.4501 39.96 77.7401 36.48 78.0501C36.17 78.0801 35.87 78.2001 35.65 78.4201C35.42 78.6501 35.11 78.8401 35.02 79.5801C35.02 79.5801 32.82 79.2001 33 81.3501C33 81.3601 30.73 81.3801 31.47 83.7101Z" fill="url(#paint1_linear_996_207)"/>
</g>
<path d="M31.17 83.7101H41.89C41.89 83.7101 42.34 79.7801 39.1 80.4501C39.1 80.4501 39.66 77.7401 36.18 78.0501C35.87 78.0801 35.57 78.2001 35.35 78.4201C35.12 78.6501 34.81 78.8401 34.72 79.5801C34.72 79.5801 32.52 79.2001 32.7 81.3501C32.7 81.3601 30.42 81.3801 31.17 83.7101Z" stroke="#8B8B8B" stroke-miterlimit="10" stroke-linecap="round" stroke-linejoin="round"/>
<path d="M15 9.5L22.69 17.54" stroke="#8B8B8B" stroke-miterlimit="10" stroke-linecap="round" stroke-linejoin="round"/>
<path d="M15.52 18.4099L20.24 23.4799" stroke="#8B8B8B" stroke-miterlimit="10" stroke-linecap="round" stroke-linejoin="round"/>
<path d="M22.51 9.66992L27.23 14.7399" stroke="#8B8B8B" stroke-miterlimit="10" stroke-linecap="round" stroke-linejoin="round"/>
<path opacity="0.3" d="M78.52 118.43C85.3738 118.43 90.93 117.042 90.93 115.33C90.93 113.618 85.3738 112.23 78.52 112.23C71.6661 112.23 66.11 113.618 66.11 115.33C66.11 117.042 71.6661 118.43 78.52 118.43Z" fill="#262626"/>
<defs>
<linearGradient id="paint0_linear_996_207" x1="106.491" y1="43.4088" x2="125.002" y2="43.4088" gradientUnits="userSpaceOnUse">
<stop stop-color="#FF7002"/>
<stop offset="0.2957" stop-color="#FE7304"/>
<stop offset="0.4996" stop-color="#FC7C0A"/>
<stop offset="0.6759" stop-color="#F88B15"/>
<stop offset="0.8364" stop-color="#F3A125"/>
<stop offset="0.9849" stop-color="#ECBD39"/>
<stop offset="1" stop-color="#EBC03B"/>
</linearGradient>
<linearGradient id="paint1_linear_996_207" x1="31.323" y1="80.8752" x2="42.2134" y2="80.8752" gradientUnits="userSpaceOnUse">
<stop stop-color="#FF7002"/>
<stop offset="0.2957" stop-color="#FE7304"/>
<stop offset="0.4996" stop-color="#FC7C0A"/>
<stop offset="0.6759" stop-color="#F88B15"/>
<stop offset="0.8364" stop-color="#F3A125"/>
<stop offset="0.9849" stop-color="#ECBD39"/>
<stop offset="1" stop-color="#EBC03B"/>
</linearGradient>
</defs>
</svg>
