<svg width="16" height="16" viewBox="0 0 36 36" fill="none" xmlns="http://www.w3.org/2000/svg">
<path d="M16.5356 1.40189C17.3545 0.617951 18.6455 0.61795 19.4644 1.40189L21.7231 3.56418C22.1893 4.01049 22.8336 4.21983 23.4731 4.13279L26.5714 3.71109C27.6947 3.55821 28.7391 4.31704 28.9408 5.43259L29.4972 8.50956C29.6121 9.14466 30.0102 9.69273 30.5788 9.9982L33.3332 11.4782C34.3318 12.0147 34.7308 13.2426 34.2383 14.2636L32.8798 17.08C32.5994 17.6613 32.5994 18.3387 32.8798 18.92L34.2383 21.7364C34.7308 22.7574 34.3318 23.9853 33.3332 24.5218L30.5788 26.0018C30.0102 26.3073 29.6121 26.8553 29.4972 27.4904L28.9408 30.5674C28.7391 31.6829 27.6947 32.4418 26.5714 32.2889L23.4731 31.8672C22.8336 31.7802 22.1893 31.9895 21.7231 32.4358L19.4644 34.5981C18.6455 35.382 17.3545 35.382 16.5356 34.5981L14.2769 32.4358C13.8107 31.9895 13.1664 31.7802 12.5269 31.8672L9.4286 32.2889C8.30532 32.4418 7.26087 31.6829 7.05915 30.5674L6.50279 27.4904C6.38795 26.8553 5.98976 26.3073 5.42123 26.0018L2.66679 24.5218C1.66817 23.9853 1.26922 22.7574 1.76174 21.7364L3.12022 18.92C3.40062 18.3387 3.40062 17.6613 3.12022 17.08L1.76174 14.2636C1.26922 13.2426 1.66817 12.0147 2.66679 11.4782L5.42123 9.9982C5.98976 9.69273 6.38795 9.14466 6.50279 8.50957L7.05915 5.4326C7.26087 4.31705 8.30532 3.55821 9.4286 3.71109L12.5269 4.13279C13.1664 4.21983 13.8107 4.01049 14.2769 3.56418L16.5356 1.40189Z" fill="#097BED"/>
<path fill-rule="evenodd" clip-rule="evenodd" d="M25.7329 12.4675C26.5599 13.2945 26.5599 14.6353 25.7329 15.4623L17.4972 23.698C16.6702 24.525 15.3294 24.525 14.5024 23.698L10.3845 19.5802C9.55754 18.7532 9.55754 17.4124 10.3845 16.5854C11.2115 15.7584 12.5523 15.7584 13.3793 16.5854L15.9998 19.2058L22.7381 12.4675C23.5651 11.6405 24.9059 11.6405 25.7329 12.4675Z" fill="white"/>
</svg>
